<svg width="26" height="26" viewBox="0 0 26 26" fill="none" xmlns="http://www.w3.org/2000/svg">
<path d="M20.2656 15.1094L13.3906 21.5938C13.2734 21.7109 13.1172 21.75 13 21.75C12.8438 21.75 12.6875 21.7109 12.5703 21.5938L5.69531 15.1094C5.42188 14.875 5.42188 14.4844 5.65625 14.2109C5.89062 13.9375 6.28125 13.9375 6.51562 14.1719L12.375 19.6406V4.91406C12.375 4.5625 12.6484 4.25 12.9609 4.25C13.2734 4.25 13.625 4.5625 13.625 4.91406V19.6406L19.4453 14.1719C19.6797 13.9375 20.0703 13.9375 20.3047 14.2109C20.5391 14.4844 20.5391 14.875 20.2656 15.1094Z" fill="#374151"/>
</svg>
