<svg width="24" height="24" viewBox="0 0 24 24" fill="none" xmlns="http://www.w3.org/2000/svg">
<path d="M18.9688 12C18.9688 12.5625 18.5312 13 18 13H8.40625L11.6875 16.3125C12.0938 16.6875 12.0938 17.3438 11.6875 17.7188C11.5 17.9062 11.25 18 11 18C10.7188 18 10.4688 17.9062 10.2812 17.7188L5.28125 12.7188C4.875 12.3438 4.875 11.6875 5.28125 11.3125L10.2812 6.3125C10.6562 5.90625 11.3125 5.90625 11.6875 6.3125C12.0938 6.6875 12.0938 7.34375 11.6875 7.71875L8.40625 11H18C18.5312 11 18.9688 11.4688 18.9688 12Z" fill="#374151"/>
</svg>
