<svg width="21" height="21" viewBox="0 0 21 21" fill="none" xmlns="http://www.w3.org/2000/svg">
<path d="M10.5 0.5C16.0078 0.5 20.5 4.99219 20.5 10.5C20.5 16.0469 16.0078 20.5 10.5 20.5C4.95312 20.5 0.5 16.0469 0.5 10.5C0.5 4.99219 4.95312 0.5 10.5 0.5ZM10.5 19.25C12.3359 19.25 14.0547 18.7031 15.4609 17.7266C15.3047 15.7734 13.7031 14.25 11.75 14.25H9.25C7.25781 14.25 5.65625 15.7734 5.5 17.7266C6.90625 18.7031 8.625 19.25 10.5 19.25ZM16.5547 16.7891C18.1953 15.1875 19.25 12.9609 19.25 10.5C19.25 5.69531 15.3047 1.75 10.5 1.75C5.65625 1.75 1.75 5.69531 1.75 10.5C1.75 12.9609 2.76562 15.1875 4.40625 16.7891C4.95312 14.6406 6.90625 13 9.25 13H11.75C14.0547 13 16.0078 14.6406 16.5547 16.7891ZM10.5 5.5C12.2188 5.5 13.625 6.90625 13.625 8.625C13.625 10.3828 12.2188 11.75 10.5 11.75C8.74219 11.75 7.375 10.3828 7.375 8.625C7.375 6.90625 8.74219 5.5 10.5 5.5ZM10.5 10.5C11.5156 10.5 12.375 9.67969 12.375 8.625C12.375 7.60938 11.5156 6.75 10.5 6.75C9.44531 6.75 8.625 7.60938 8.625 8.625C8.625 9.67969 9.44531 10.5 10.5 10.5Z" fill="#374151"/>
</svg>
