<svg width="17" height="16" viewBox="0 0 17 16" fill="none" xmlns="http://www.w3.org/2000/svg">
<path d="M6.125 5.65625C6.3125 5.46875 6.65625 5.46875 6.84375 5.65625L8.5 7.3125L10.125 5.65625C10.3125 5.46875 10.6562 5.46875 10.8438 5.65625C11.0312 5.84375 11.0312 6.1875 10.8438 6.375L9.1875 8L10.8438 9.65625C11.0312 9.84375 11.0312 10.1875 10.8438 10.375C10.6562 10.5625 10.3125 10.5625 10.125 10.375L8.5 8.71875L6.84375 10.375C6.65625 10.5625 6.3125 10.5625 6.125 10.375C5.9375 10.1875 5.9375 9.84375 6.125 9.65625L7.78125 8L6.125 6.375C5.9375 6.1875 5.9375 5.84375 6.125 5.65625ZM16.5 8C16.5 12.4375 12.9062 16 8.5 16C4.0625 16 0.5 12.4375 0.5 8C0.5 3.59375 4.0625 0 8.5 0C12.9062 0 16.5 3.59375 16.5 8ZM8.5 1C4.625 1 1.5 4.15625 1.5 8C1.5 11.875 4.625 15 8.5 15C12.3438 15 15.5 11.875 15.5 8C15.5 4.15625 12.3438 1 8.5 1Z" fill="#2563EB"/>
</svg>
