<svg width="21" height="24" viewBox="0 0 21 24" fill="none" xmlns="http://www.w3.org/2000/svg">
<path d="M0 4.5C0 3.70312 0.65625 3 1.5 3H19.5C20.2969 3 21 3.70312 21 4.5C21 5.34375 20.2969 6 19.5 6H1.5C0.65625 6 0 5.34375 0 4.5ZM0 12C0 11.2031 0.65625 10.5 1.5 10.5H19.5C20.2969 10.5 21 11.2031 21 12C21 12.8438 20.2969 13.5 19.5 13.5H1.5C0.65625 13.5 0 12.8438 0 12ZM19.5 21H1.5C0.65625 21 0 20.3438 0 19.5C0 18.7031 0.65625 18 1.5 18H19.5C20.2969 18 21 18.7031 21 19.5C21 20.3438 20.2969 21 19.5 21Z" fill="#374151"/>
</svg>
