<svg width="15" height="20" viewBox="0 0 15 20" fill="none" xmlns="http://www.w3.org/2000/svg">
<path d="M8.3125 9.375C8.90625 8.78125 9.84375 8.78125 10.4375 9.375L10.625 9.5625C11.2188 10.1562 11.2188 11.0938 10.625 11.6875L6.78125 15.5312C6.65625 15.6562 6.5 15.75 6.3125 15.8125L4.75 16.1562C4.1875 16.2812 3.71875 15.8125 3.84375 15.25L4.1875 13.6875C4.25 13.5 4.34375 13.3438 4.46875 13.2188L8.3125 9.375ZM9.71875 10.0625C9.53125 9.875 9.21875 9.875 9 10.0625L8.625 10.4688L9.53125 11.375L9.9375 10.9688C10.125 10.7812 10.125 10.4688 9.9375 10.2812L9.71875 10.0625ZM8.84375 12.0625L7.9375 11.1562L5.15625 13.9062L4.90625 15.0938L6.09375 14.8125L8.84375 12.0625ZM4 2C4.25 2 4.5 2.25 4.5 2.5V4H10.5V2.5C10.5 2.25 10.7188 2 11 2C11.25 2 11.5 2.25 11.5 2.5V4H12.5C13.5938 4 14.5 4.90625 14.5 6V16C14.5 17.125 13.5938 18 12.5 18H2.5C1.375 18 0.5 17.125 0.5 16V6C0.5 4.90625 1.375 4 2.5 4H3.5V2.5C3.5 2.25 3.71875 2 4 2ZM13.5 8H1.5V16C1.5 16.5625 1.9375 17 2.5 17H12.5C13.0312 17 13.5 16.5625 13.5 16V8ZM12.5 5H2.5C1.9375 5 1.5 5.46875 1.5 6V7H13.5V6C13.5 5.46875 13.0312 5 12.5 5Z" fill="white"/>
</svg>
