<svg width="14" height="16" viewBox="0 0 14 16" fill="none" xmlns="http://www.w3.org/2000/svg">
<path d="M7.8125 7.375C8.40625 6.78125 9.34375 6.78125 9.9375 7.375L10.125 7.5625C10.7188 8.15625 10.7188 9.09375 10.125 9.6875L6.28125 13.5312C6.15625 13.6562 6 13.75 5.8125 13.8125L4.25 14.1562C3.6875 14.2812 3.21875 13.8125 3.34375 13.25L3.6875 11.6875C3.75 11.5 3.84375 11.3438 3.96875 11.2188L7.8125 7.375ZM9.21875 8.0625C9.03125 7.875 8.71875 7.875 8.5 8.0625L8.125 8.46875L9.03125 9.375L9.4375 8.96875C9.625 8.78125 9.625 8.46875 9.4375 8.28125L9.21875 8.0625ZM8.34375 10.0625L7.4375 9.15625L4.65625 11.9062L4.40625 13.0938L5.59375 12.8125L8.34375 10.0625ZM3.5 0C3.75 0 4 0.25 4 0.5V2H10V0.5C10 0.25 10.2188 0 10.5 0C10.75 0 11 0.25 11 0.5V2H12C13.0938 2 14 2.90625 14 4V14C14 15.125 13.0938 16 12 16H2C0.875 16 0 15.125 0 14V4C0 2.90625 0.875 2 2 2H3V0.5C3 0.25 3.21875 0 3.5 0ZM13 6H1V14C1 14.5625 1.4375 15 2 15H12C12.5312 15 13 14.5625 13 14V6ZM12 3H2C1.4375 3 1 3.46875 1 4V5H13V4C13 3.46875 12.5312 3 12 3Z" fill="#374151"/>
</svg>
