<svg width="25" height="25" viewBox="0 0 25 25" fill="none" xmlns="http://www.w3.org/2000/svg">
<path d="M25 15V16.875C25 17.5781 24.4141 18.125 23.75 18.125H22.4219C22.1484 19.9219 20.5859 21.25 18.75 21.25C16.875 21.25 15.3125 19.9219 15.0391 18.125H9.92188C9.64844 19.9219 8.08594 21.25 6.25 21.25C4.375 21.25 2.8125 19.9219 2.53906 18.125H1.25C0.546875 18.125 0 17.5781 0 16.875V12.5C0 11.2891 0.859375 10.2734 2.03125 10.0391L3.78906 5.74219C4.25781 4.53125 5.39062 3.75 6.67969 3.75H13.7891C14.7266 3.75 15.625 4.21875 16.2109 4.96094L20.2734 10.0391C22.8906 10.1953 25 12.3438 25 15ZM6.67969 5C5.89844 5 5.23438 5.46875 4.92188 6.21094L3.39844 10H8.75V5H6.67969ZM10 10H18.6719L15.2344 5.74219C14.8828 5.27344 14.3359 5 13.7891 5H10V10ZM21.1328 18.125C21.2109 17.9297 21.25 17.7344 21.25 17.5C21.25 17.3047 21.2109 17.1094 21.1328 16.875C20.8594 15.8203 19.8828 15 18.75 15C17.5781 15 16.6016 15.8203 16.3281 16.875C16.25 17.1094 16.25 17.3047 16.25 17.5C16.25 17.7344 16.25 17.9297 16.3281 18.125C16.6016 19.2188 17.5781 20 18.75 20C19.8828 20 20.8594 19.2188 21.1328 18.125ZM15.0391 16.875C15.3125 15.1172 16.875 13.75 18.75 13.75C20.5859 13.75 22.1484 15.1172 22.4219 16.875H23.75V15C23.75 12.9297 22.0703 11.25 20 11.25H2.5C1.79688 11.25 1.25 11.8359 1.25 12.5V16.875H2.53906C2.8125 15.1172 4.375 13.75 6.25 13.75C8.08594 13.75 9.64844 15.1172 9.92188 16.875H15.0391ZM8.63281 18.125C8.71094 17.9297 8.75 17.7344 8.75 17.5C8.75 17.3047 8.71094 17.1094 8.63281 16.875C8.35938 15.8203 7.38281 15 6.25 15C5.07812 15 4.10156 15.8203 3.82812 16.875C3.75 17.1094 3.75 17.3047 3.75 17.5C3.75 17.7344 3.75 17.9297 3.82812 18.125C4.10156 19.2188 5.07812 20 6.25 20C7.38281 20 8.35938 19.2188 8.63281 18.125Z" fill="#2563EB"/>
</svg>
