<svg width="14" height="14" viewBox="0 0 14 14" fill="none" xmlns="http://www.w3.org/2000/svg">
<path d="M10.6875 0C11.4688 0 12.1875 0.46875 12.5 1.21875L13.8125 4.125C13.9375 4.375 14 4.65625 14 4.9375V12C14 13.125 13.0938 14 12 14H2C0.875 14 0 13.125 0 12V4.9375C0 4.65625 0.03125 4.375 0.15625 4.125L1.46875 1.21875C1.78125 0.46875 2.5 0 3.28125 0H10.6875ZM10.6875 1H7.5V4H12.6562L11.5938 1.59375C11.4375 1.25 11.0938 1 10.6875 1ZM13 5H1V12C1 12.5625 1.4375 13 2 13H12C12.5312 13 13 12.5625 13 12V5ZM1.3125 4H6.5V1H3.28125C2.875 1 2.53125 1.25 2.375 1.59375L1.3125 4Z" fill="#374151"/>
</svg>
