<svg width="20" height="16" viewBox="0 0 20 16" fill="none" xmlns="http://www.w3.org/2000/svg">
<path d="M9.34375 11.875C9.15625 12.0625 8.8125 12.0625 8.625 11.875L6.875 10.125C6.6875 9.9375 6.6875 9.59375 6.875 9.40625C7.0625 9.21875 7.40625 9.21875 7.59375 9.40625L9 10.8125L12.125 7.65625C12.3125 7.46875 12.6562 7.46875 12.8438 7.65625C13.0312 7.84375 13.0312 8.1875 12.8438 8.375L9.34375 11.875ZM16.8125 5.125C16.9375 5.375 17 5.65625 17 5.9375V13C17 14.125 16.0938 15 15 15H5C3.875 15 3 14.125 3 13V5.9375C3 5.65625 3.03125 5.375 3.15625 5.125L4.46875 2.21875C4.78125 1.46875 5.5 1 6.28125 1H13.6875C14.4688 1 15.1875 1.46875 15.5 2.21875L16.8125 5.125ZM10.5 5H15.6562L14.5938 2.59375C14.4375 2.25 14.0938 2 13.6875 2H10.5V5ZM4 6V13C4 13.5625 4.4375 14 5 14H15C15.5312 14 16 13.5625 16 13V6H4ZM9.5 2H6.28125C5.875 2 5.53125 2.25 5.375 2.59375L4.3125 5H9.5V2Z" fill="#374151"/>
</svg>
