<svg width="25" height="25" viewBox="0 0 25 25" fill="none" xmlns="http://www.w3.org/2000/svg">
<path d="M17.1094 3.75C18.0859 3.75 18.9844 4.33594 19.375 5.27344L21.0156 8.90625C21.1719 9.21875 21.25 9.57031 21.25 9.92188V18.75C21.25 20.1562 20.1172 21.25 18.75 21.25H6.25C4.84375 21.25 3.75 20.1562 3.75 18.75V9.92188C3.75 9.57031 3.78906 9.21875 3.94531 8.90625L5.58594 5.27344C5.97656 4.33594 6.875 3.75 7.85156 3.75H17.1094ZM17.1094 5H13.125V8.75H19.5703L18.2422 5.74219C18.0469 5.3125 17.6172 5 17.1094 5ZM20 10H5V18.75C5 19.4531 5.54688 20 6.25 20H18.75C19.4141 20 20 19.4531 20 18.75V10ZM5.39062 8.75H11.875V5H7.85156C7.34375 5 6.91406 5.3125 6.71875 5.74219L5.39062 8.75Z" fill="#2563EB"/>
</svg>
