<svg width="20" height="16" viewBox="0 0 20 16" fill="none" xmlns="http://www.w3.org/2000/svg">
<path d="M11.9062 10.625L11.375 8.5625C11.2812 8.1875 11.3438 7.78125 11.5625 7.4375C11.75 7.09375 12.0938 6.84375 12.4688 6.75L14.5625 6.21875C14.9375 6.125 15.3438 6.1875 15.6875 6.40625C16.0312 6.59375 16.2812 6.9375 16.375 7.3125L16.875 9.40625C16.9688 9.78125 16.9062 10.1875 16.7188 10.5312C16.5 10.875 16.1875 11.125 15.7812 11.2188L13.7188 11.7188C13.5938 11.75 13.4688 11.7812 13.3438 11.7812C12.6875 11.7812 12.0625 11.3125 11.9062 10.625ZM12.4062 7.9375C12.3438 8.0625 12.3125 8.1875 12.3438 8.3125L12.875 10.4062C12.9375 10.6562 13.2188 10.8438 13.4688 10.75L15.5625 10.25C15.8125 10.1875 15.9688 9.90625 15.9062 9.625L15.4062 7.5625C15.375 7.4375 15.2812 7.3125 15.1562 7.25C15.0625 7.1875 14.9062 7.15625 14.7812 7.1875L12.7188 7.71875C12.5938 7.75 12.4688 7.84375 12.4062 7.9375ZM17.9688 12.375C18.0312 12.625 17.9062 12.9062 17.5625 13L12.875 14.4062C12.7188 15.3125 11.9062 16 10.9375 16C9.84375 16 8.96875 15.125 8.96875 14C8.96875 13.3125 9.375 12.6875 9.9375 12.3125L9.15625 9H7.59375C7.03125 9 6.53125 8.6875 6.25 8.1875L4.96875 5.59375C4.78125 5.25 4.4375 5 4.03125 5C3.46875 5 3 5.46875 3 6.0625V8.9375C3 9.125 3.09375 9.28125 3.25 9.375L6.21875 11.0938C6.34375 11.1562 6.4375 11.25 6.46875 11.4062L7.46875 15.4062C7.53125 15.6562 7.375 15.9375 7.09375 16C7.0625 16 7.03125 16 7 16C6.75 16 6.5625 15.875 6.5 15.625L5.5625 11.8438L2.75 10.25C2.28125 9.96875 2 9.46875 2 8.9375V6.0625C2 4.9375 2.90625 4 4.03125 4C4.8125 4 5.5 4.4375 5.875 5.15625L7.15625 7.75C7.25 7.90625 7.40625 8 7.59375 8H8.90625L8.28125 5.28125C8.1875 5.03125 8.375 4.75 8.625 4.6875C8.90625 4.625 9.1875 4.78125 9.25 5.0625L10.875 12.0312C10.9062 12.0312 10.9375 12 11 12C11.875 12 12.5938 12.5938 12.875 13.375L17.3438 12.0312C17.5938 11.9688 17.875 12.0938 17.9688 12.375ZM11 15C11.5312 15 12 14.5625 12 14C12 13.4688 11.5312 13 11 13C10.4375 13 10 13.4688 10 14C10 14.5625 10.4375 15 11 15ZM4.75 3.5C3.78125 3.5 3 2.71875 3 1.75C3 0.8125 3.78125 0 4.75 0C5.6875 0 6.5 0.8125 6.5 1.75C6.5 2.71875 5.6875 3.5 4.75 3.5ZM4.75 1C4.3125 1 4 1.34375 4 1.75C4 2.1875 4.3125 2.5 4.75 2.5C5.15625 2.5 5.5 2.1875 5.5 1.75C5.5 1.34375 5.15625 1 4.75 1ZM2.5 11C2.75 11 3 11.25 3 11.5V15.5C3 15.7812 2.75 16 2.5 16C2.21875 16 2 15.7812 2 15.5V11.5C2 11.25 2.21875 11 2.5 11Z" fill="#374151"/>
</svg>
