<svg width="40" height="16" viewBox="0 0 40 16" fill="none" xmlns="http://www.w3.org/2000/svg">
<g clip-path="url(#clip0_568_2743)">
<path d="M5.16824 3.49854C2.35641 3.49854 0.0133057 4.69146 0.0133057 8.29045C0.0133057 11.1416 1.58887 12.9372 5.24085 12.9372C9.53939 12.9372 9.81494 10.1056 9.81494 10.1056H7.7321C7.7321 10.1056 7.28552 11.6303 5.11379 11.6303C3.34497 11.6303 2.07278 10.4354 2.07278 8.76057H10.0328V7.70961C10.0328 6.0527 8.98092 3.49854 5.16824 3.49854ZM5.09564 4.84172C6.77936 4.84172 7.92722 5.87321 7.92722 7.41919H2.11884C2.11884 5.77794 3.61709 4.84172 5.09564 4.84172Z" fill="#E53238"/>
<path d="M10.0312 0.0131836V11.1294C10.0312 11.7604 9.98621 12.6464 9.98621 12.6464H11.9728C11.9728 12.6464 12.0441 12.0101 12.0441 11.4285C12.0441 11.4285 13.0256 12.9641 15.6944 12.9641C18.5048 12.9641 20.4137 11.0129 20.4137 8.21752C20.4137 5.617 18.6603 3.52544 15.6989 3.52544C12.9259 3.52544 12.0642 5.02291 12.0642 5.02291V0.0131836H10.0312ZM15.1862 4.90039C17.0946 4.90039 18.3082 6.31679 18.3082 8.21752C18.3082 10.2557 16.9066 11.5891 15.1998 11.5891C13.1629 11.5891 12.0642 9.99872 12.0642 8.23567C12.0642 6.59286 13.0501 4.90039 15.1862 4.90039Z" fill="#0064D2"/>
<path d="M25.3509 3.49854C21.1207 3.49854 20.8494 5.81478 20.8494 6.18491H22.9549C22.9549 6.18491 23.0653 4.83265 25.2057 4.83265C26.5965 4.83265 27.6742 5.46925 27.6742 6.69314V7.12877H25.2057C21.9285 7.12877 20.1959 8.08748 20.1959 10.033C20.1959 11.9476 21.7967 12.9893 23.96 12.9893C26.9083 12.9893 27.858 11.3603 27.858 11.3603C27.858 12.0082 27.9079 12.6467 27.9079 12.6467H29.7797C29.7797 12.6467 29.7071 11.8553 29.7071 11.3489V6.97222C29.7071 4.10247 27.3924 3.49854 25.3509 3.49854ZM27.6742 8.43566V9.0165C27.6742 9.77407 27.2067 11.6575 24.4546 11.6575C22.9476 11.6575 22.3015 10.9054 22.3015 10.033C22.3015 8.44588 24.4774 8.43566 27.6742 8.43566Z" fill="#F5AF02"/>
<path d="M28.5734 3.86182H30.9421L34.3416 10.6724L37.7332 3.86182H39.879L33.7011 15.9868H31.4503L33.233 12.6068L28.5734 3.86182Z" fill="#86B817"/>
</g>
<defs>
<clipPath id="clip0_568_2743">
<rect width="39.8923" height="16" fill="white"/>
</clipPath>
</defs>
</svg>
