<svg width="17" height="16" viewBox="0 0 17 16" fill="none" xmlns="http://www.w3.org/2000/svg">
<path d="M9 1C13.4062 1 16.9688 3.96875 16.9688 7.53125C16.9688 11.0938 13.4062 14 9 14C7.96875 14 6.96875 13.8438 6.09375 13.5625C5.15625 14.2188 3.65625 15 1.75 15C1.4375 15 1.15625 14.8438 1.0625 14.5312C0.96875 14.25 1 13.9375 1.21875 13.7188C1.21875 13.7188 2.1875 12.6562 2.65625 11.4375C1.625 10.3438 1 8.96875 1 7.5C1 3.90625 4.5625 1 9 1ZM9 13C12.8438 13 15.9375 10.5312 15.9375 7.5C15.9375 4.46875 12.8125 2 8.96875 2C5.125 2 2 4.46875 2 7.5C2 8.6875 2.46875 9.8125 3.375 10.7812C3.625 11.0938 3.71875 11.4688 3.5625 11.8125C3.21875 12.7188 2.65625 13.5312 2.28125 14C3.6875 13.8438 4.8125 13.25 5.5 12.75C5.75 12.5625 6.09375 12.5312 6.375 12.625C7.21875 12.875 8.09375 13 9 13ZM8.96875 9C8.71875 9 8.5 8.78125 8.5 8.5V4C8.5 3.75 8.71875 3.5 9 3.5C9.25 3.5 9.5 3.75 9.5 4V8.5C9.5 8.78125 9.25 9 8.96875 9ZM9 9.75C9.40625 9.75 9.75 10.0938 9.75 10.5C9.75 10.9375 9.40625 11.25 9 11.25C8.5625 11.25 8.25 10.9375 8.25 10.5C8.25 10.0938 8.5625 9.75 9 9.75Z" fill="#374151"/>
</svg>
