<svg width="25" height="25" viewBox="0 0 25 25" fill="none" xmlns="http://www.w3.org/2000/svg">
<path d="M22.3047 6.99219C22.8125 9.02344 22.2266 11.0938 20.7422 12.5781C19.2578 14.0625 17.1094 14.6484 15.0781 14.1016L7.53906 21.6406C6.99219 22.2266 6.25 22.5 5.42969 22.5C4.64844 22.5 3.90625 22.2266 3.35938 21.6016C2.1875 20.4688 2.1875 18.5938 3.35938 17.4219L10.8984 9.88281C10.3516 7.85156 10.9375 5.74219 12.4219 4.25781C13.9062 2.77344 15.9766 2.1875 18.0078 2.69531C18.3594 2.77344 18.6719 3.08594 18.7891 3.4375C18.8672 3.82812 18.7891 4.21875 18.5156 4.49219L16.0156 6.99219L16.2891 8.71094L18.0078 8.98438L20.5078 6.48438C20.7812 6.21094 21.1719 6.13281 21.5625 6.21094C21.9141 6.32812 22.2266 6.60156 22.3047 6.99219ZM19.8828 11.7188C20.9375 10.625 21.4062 9.10156 21.1719 7.61719L18.4375 10.3125L15.1953 9.80469L14.6484 6.5625L17.3828 3.82812C17.1094 3.78906 16.8359 3.75 16.5625 3.75C15.3516 3.75 14.1797 4.25781 13.2812 5.11719C12.0703 6.36719 11.6406 8.20312 12.1875 9.88281L12.2656 10.2344L4.17969 18.3203C3.51562 18.9844 3.51562 20.0781 4.17969 20.7812C4.84375 21.4062 5.97656 21.4062 6.64062 20.7812L14.7266 12.6953L15.1172 12.8125C16.7969 13.3594 18.6328 12.9297 19.8828 11.7188ZM5.58594 18.75C5.9375 18.75 6.21094 19.0234 6.21094 19.375C6.21094 19.6875 5.9375 20 5.58594 20C5.27344 20 4.96094 19.6875 4.96094 19.375C4.96094 19.0234 5.27344 18.75 5.58594 18.75Z" fill="#2563EB"/>
</svg>
