<svg width="20" height="16" viewBox="0 0 20 16" fill="none" xmlns="http://www.w3.org/2000/svg">
<path d="M10.1875 1.125C10.0625 1.09375 9.90625 1.09375 9.78125 1.125L1.59375 4.59375C1.21875 4.75 1 5.09375 1 5.5V15.5C1 15.7812 0.75 16 0.5 16C0.21875 16 0 15.7812 0 15.5V5.5C0 4.71875 0.46875 3.96875 1.21875 3.65625L9.40625 0.21875C9.78125 0.0625 10.1875 0.0625 10.5625 0.21875L18.75 3.65625C19.5 3.96875 20 4.71875 20 5.5V15.5C20 15.7812 19.75 16 19.5 16C19.2188 16 19 15.7812 19 15.5V5.5C19 5.09375 18.75 4.75 18.375 4.59375L10.1875 1.125ZM3 7C3 6.46875 3.4375 6 4 6H16C16.5312 6 17 6.46875 17 7V15.5C17 15.7812 16.75 16 16.5 16C16.2188 16 16 15.7812 16 15.5V11H4V15.5C4 15.7812 3.75 16 3.5 16C3.21875 16 3 15.7812 3 15.5V7ZM4 10H16V7H4V10ZM11.5 13C11.75 13 12 13.25 12 13.5C12 13.7812 11.75 14 11.5 14H8.5C8.21875 14 8 13.7812 8 13.5C8 13.25 8.21875 13 8.5 13H11.5Z" fill="#374151"/>
</svg>
