<svg width="25" height="25" viewBox="0 0 25 25" fill="none" xmlns="http://www.w3.org/2000/svg">
<path d="M9.0625 12.5C9.0625 10.625 10.5859 9.0625 12.5 9.0625C14.375 9.0625 15.9375 10.625 15.9375 12.5C15.9375 14.4141 14.375 15.9375 12.5 15.9375C10.5859 15.9375 9.0625 14.4141 9.0625 12.5ZM12.5 10.3125C11.2891 10.3125 10.3125 11.3281 10.3125 12.5C10.3125 13.7109 11.2891 14.6875 12.5 14.6875C13.6719 14.6875 14.6875 13.7109 14.6875 12.5C14.6875 11.3281 13.6719 10.3125 12.5 10.3125ZM5.03906 11.5234L3.47656 10.0781C3.04688 9.6875 2.92969 9.0625 3.24219 8.55469L4.41406 6.48438C4.6875 5.97656 5.3125 5.74219 5.85938 5.9375L7.89062 6.5625C8.4375 6.17188 9.02344 5.82031 9.60938 5.58594L10.0781 3.51562C10.1953 2.92969 10.7031 2.5 11.2891 2.5H13.6719C14.2578 2.5 14.7656 2.92969 14.8828 3.51562L15.3516 5.58594C15.9375 5.82031 16.5234 6.17188 17.0703 6.5625L19.1016 5.9375C19.6484 5.74219 20.2734 5.97656 20.5469 6.48438L21.7188 8.55469C22.0312 9.0625 21.9141 9.6875 21.4844 10.0781L19.9219 11.5234C19.9609 11.8359 20 12.1875 20 12.5C20 12.8516 19.9609 13.2031 19.9219 13.5156L21.4844 14.9609C21.9141 15.3516 22.0312 15.9766 21.7188 16.4844L20.5469 18.5547C20.2734 19.0625 19.6484 19.2969 19.1016 19.1016L17.0703 18.4766C16.5234 18.8672 15.9375 19.1797 15.3516 19.4531L14.8828 21.5234C14.7656 22.1094 14.2578 22.5 13.6719 22.5H11.2891C10.7031 22.5 10.1953 22.1094 10.0781 21.5234L9.60938 19.4531C9.02344 19.1797 8.4375 18.8672 7.89062 18.4766L5.85938 19.1016C5.3125 19.2969 4.6875 19.0625 4.41406 18.5547L3.24219 16.4844C2.92969 15.9766 3.04688 15.3516 3.47656 14.9609L5.03906 13.5156C5 13.2031 5 12.8516 5 12.5C5 12.1875 5 11.8359 5.03906 11.5234ZM8.67188 7.57812L8.16406 7.96875L5.50781 7.10938L4.29688 9.17969L6.36719 11.0547L6.28906 11.6797C6.25 11.9531 6.25 12.2266 6.25 12.5C6.25 12.8125 6.25 13.0859 6.28906 13.3594L6.36719 13.9844L4.29688 15.8594L5.50781 17.9297L8.16406 17.0703L8.67188 17.4609C9.10156 17.8125 9.57031 18.0859 10.1172 18.2812L10.7031 18.5547L11.2891 21.25H13.6719L14.2578 18.5547L14.8438 18.2812C15.3906 18.0859 15.8594 17.8125 16.2891 17.4609L16.7969 17.0703L19.4531 17.9297L20.6641 15.8594L18.5938 13.9844L18.6719 13.3594C18.7109 13.0859 18.75 12.8125 18.75 12.5C18.75 12.2266 18.7109 11.9531 18.6719 11.6797L18.5938 11.0547L20.6641 9.17969L19.4531 7.10938L16.7969 7.96875L16.2891 7.57812C15.8594 7.22656 15.3906 6.95312 14.8438 6.71875L14.2578 6.48438L13.6719 3.75H11.2891L10.7031 6.48438L10.1172 6.71875C9.57031 6.95312 9.10156 7.22656 8.67188 7.57812Z" fill="#2563EB"/>
</svg>
