<svg width="14" height="16" viewBox="0 0 14 16" fill="none" xmlns="http://www.w3.org/2000/svg">
<path d="M14 11.5C14 12.1562 13.5625 12.7188 13 12.9375V15H13.5C13.75 15 14 15.25 14 15.5C14 15.7812 13.75 16 13.5 16H2C0.875 16 0 15.125 0 14V2.5C0 1.125 1.09375 0 2.5 0H12.5C13.3125 0 14 0.6875 14 1.5V11.5ZM1 2.5V12.2812C1.28125 12.125 1.625 12 2 12H3V1H2.5C1.65625 1 1 1.6875 1 2.5ZM12 15V13H2C1.4375 13 1 13.4688 1 14C1 14.5625 1.4375 15 2 15H12ZM12.5 12C12.75 12 13 11.7812 13 11.5V1.5C13 1.25 12.75 1 12.5 1H4V12H12.5ZM11 4C11.25 4 11.5 4.25 11.5 4.5C11.5 4.78125 11.25 5 11 5H6C5.71875 5 5.5 4.78125 5.5 4.5C5.5 4.25 5.71875 4 6 4H11ZM11 7C11.25 7 11.5 7.25 11.5 7.5C11.5 7.78125 11.25 8 11 8H6C5.71875 8 5.5 7.78125 5.5 7.5C5.5 7.25 5.71875 7 6 7H11Z" fill="#374151"/>
</svg>
