<svg width="25" height="25" viewBox="0 0 25 25" fill="none" xmlns="http://www.w3.org/2000/svg">
<path d="M23.0469 15.5469C23.4766 15.9766 23.75 16.5625 23.6719 17.1484C23.6719 17.7734 23.3984 18.3594 22.9297 18.7109L18.9844 21.875C18.4375 22.3047 17.8125 22.5 17.1484 22.5H1.83594C1.52344 22.5 1.25 22.1875 1.25 21.875C1.25 21.5234 1.52344 21.25 1.875 21.25H17.1484C17.5391 21.25 17.8906 21.0938 18.2031 20.8594L22.1484 17.7344C22.5391 17.4219 22.5781 16.7969 22.1484 16.4453C22.0312 16.3281 21.8359 16.25 21.6406 16.25C21.4453 16.25 21.2109 16.3281 21.0547 16.4453L18.6328 18.3594C18.3594 18.5938 17.9688 18.75 17.6172 18.75H10.5859C10.2344 18.75 9.96094 18.4375 9.96094 18.125C9.96094 17.7734 10.2344 17.5 10.5859 17.5H14.0234C14.5312 17.5 14.9609 17.0703 14.9609 16.5625C14.9609 16.0156 14.5312 15.625 14.0234 15.625H8.28125C7.73438 15.625 7.22656 15.7812 6.75781 16.0938L4.96094 17.5H1.83594C1.52344 17.5 1.25 17.2266 1.25 16.875C1.25 16.5625 1.52344 16.25 1.875 16.25H4.57031L6.05469 15.1562C6.75781 14.6484 7.5 14.375 8.32031 14.375H13.9453C15.0391 14.375 16.0547 15.1562 16.2109 16.25C16.2891 16.7188 16.2109 17.1484 16.0156 17.5H17.6562C17.7344 17.5 17.8516 17.5 17.9297 17.4219L20.3125 15.5078C20.7031 15.1953 21.1719 15.0391 21.6797 15.0391C22.1875 15.0391 22.6562 15.1953 23.0469 15.5469ZM7.5 12.5C6.09375 12.5 5 11.4062 5 10V5C5 3.63281 6.09375 2.5 7.5 2.5H17.4609C18.7891 2.5 19.9219 3.63281 19.9219 5V10C19.9219 11.4062 18.8281 12.5 17.4609 12.5H7.5ZM10.625 3.75V6.52344L12.1875 5.70312C12.3828 5.625 12.5781 5.625 12.7734 5.70312C13.4375 6.05469 13.9453 6.28906 14.375 6.52344V3.75H10.625ZM6.25 5V10C6.25 10.7031 6.79688 11.25 7.5 11.25H17.5C18.1641 11.25 18.75 10.7031 18.75 10V5C18.75 4.33594 18.1641 3.75 17.5 3.75H15.5859V7.34375C15.625 7.46094 15.625 7.53906 15.5859 7.65625C15.4688 8.125 14.7656 8.24219 14.5703 8.00781C14.1406 7.8125 13.0078 7.22656 12.5 6.95312L10.2734 8.08594C10.1562 8.125 10.0781 8.125 10 8.125C9.88281 8.125 9.76562 8.125 9.64844 8.04688C9.45312 7.92969 9.375 7.73438 9.375 7.5V3.75H7.5C6.79688 3.75 6.25 4.33594 6.25 5Z" fill="#2563EB"/>
</svg>
