<svg width="18" height="16" viewBox="0 0 18 16" fill="none" xmlns="http://www.w3.org/2000/svg">
<g clip-path="url(#clip0_568_2751)">
<path d="M0 0.499891C0 0.303016 0.115625 0.124891 0.29375 0.0436409C0.471875 -0.0376091 0.68125 -0.00635907 0.828125 0.124891L2.47813 1.56552L3.89687 0.146766C4.09062 -0.0469841 4.40938 -0.0469841 4.60313 0.146766L6 1.54364L7.39687 0.146766C7.59062 -0.0469841 7.90937 -0.0469841 8.10312 0.146766L9.52188 1.56552L11.1719 0.124891C11.3188 -0.00635907 11.5281 -0.0376091 11.7063 0.0436409C11.8844 0.124891 12 0.303016 12 0.499891V6.20614C11.65 6.30614 11.3156 6.43739 11 6.59989V1.60302L9.82812 2.62489C9.63125 2.79989 9.33438 2.79052 9.14688 2.60302L7.75 1.20614L6.35313 2.60302C6.15938 2.79677 5.84062 2.79677 5.64687 2.60302L4.25 1.20614L2.85313 2.60302C2.66875 2.78739 2.36875 2.79677 2.17188 2.62489L1 1.60302V14.3968L2.17188 13.3749C2.36875 13.1999 2.66563 13.2093 2.85313 13.3968L4.25 14.7936L5.64687 13.3968C5.84062 13.203 6.15938 13.203 6.35313 13.3968L7.75 14.7936L8.58125 13.9624C8.73438 14.2686 8.91875 14.5593 9.125 14.8311L8.10312 15.853C7.90937 16.0468 7.59062 16.0468 7.39687 15.853L6 14.4561L4.6 15.8561C4.40625 16.0499 4.0875 16.0499 3.89375 15.8561L2.475 14.4374L0.828125 15.878C0.68125 16.0061 0.471875 16.0374 0.29375 15.9561C0.115625 15.8749 0 15.6968 0 15.4999V0.499891ZM2.5 4.99989C2.5 4.72489 2.725 4.49989 3 4.49989H9C9.275 4.49989 9.5 4.72489 9.5 4.99989C9.5 5.27489 9.275 5.49989 9 5.49989H3C2.725 5.49989 2.5 5.27489 2.5 4.99989ZM2.5 7.99989C2.5 7.72489 2.725 7.49989 3 7.49989H9C9.19687 7.49989 9.36562 7.61552 9.45 7.78114C9.24375 8.00614 9.05625 8.24677 8.89062 8.49989H3C2.725 8.49989 2.5 8.27489 2.5 7.99989ZM2.5 10.9999C2.5 10.7249 2.725 10.4999 3 10.4999H8.09062C8.03125 10.8249 8 11.1593 8 11.4999H3C2.725 11.4999 2.5 11.2749 2.5 10.9999ZM9 11.4999C9 9.01552 11.0156 6.99989 13.5 6.99989C15.9844 6.99989 18 9.01552 18 11.4999C18 13.9843 15.9844 15.9999 13.5 15.9999C11.0156 15.9999 9 13.9843 9 11.4999ZM10 11.4999C10 13.4343 11.5656 14.9999 13.5 14.9999C15.4344 14.9999 17 13.4343 17 11.4999C17 9.56552 15.4344 7.99989 13.5 7.99989C11.5656 7.99989 10 9.56552 10 11.4999ZM11.3969 11.1468C11.5906 10.953 11.9094 10.953 12.1031 11.1468L13 12.0436L14.8969 10.1468C15.0906 9.95302 15.4094 9.95302 15.6031 10.1468C15.7969 10.3405 15.7969 10.6593 15.6031 10.853L13.3531 13.103C13.1594 13.2968 12.8406 13.2968 12.6469 13.103L11.3969 11.853C11.2031 11.6593 11.2031 11.3405 11.3969 11.1468Z" fill="black"/>
</g>
<defs>
<clipPath id="clip0_568_2751">
<rect width="18" height="16" fill="white"/>
</clipPath>
</defs>
</svg>
