<svg width="25" height="26" viewBox="0 0 25 26" fill="none" xmlns="http://www.w3.org/2000/svg">
<path d="M2.5 8C2.5 6.63281 3.59375 5.5 5 5.5H20C21.3672 5.5 22.5 6.63281 22.5 8V18C22.5 19.4062 21.3672 20.5 20 20.5H5C3.59375 20.5 2.5 19.4062 2.5 18V8ZM3.75 8V9.5625L11.3672 15.1875C12.0312 15.6562 12.9297 15.6562 13.5938 15.1875L21.25 9.5625V8C21.25 7.33594 20.6641 6.75 20 6.75H4.96094C4.29688 6.75 3.71094 7.33594 3.71094 8H3.75ZM3.75 11.125V18C3.75 18.7031 4.29688 19.25 5 19.25H20C20.6641 19.25 21.25 18.7031 21.25 18V11.125L14.3359 16.2031C13.2422 16.9844 11.7188 16.9844 10.625 16.2031L3.75 11.125Z" fill="#2563EB"/>
</svg>
