<svg width="25" height="25" viewBox="0 0 25 25" fill="none" xmlns="http://www.w3.org/2000/svg">
<path d="M19.9609 2.5C21.3672 2.5 22.4609 3.63281 22.4609 5V16.1719C22.4609 17.5 21.3281 18.6328 19.9609 18.6328H14.3359L9.45312 22.3047C9.14062 22.5 8.71094 22.3047 8.71094 21.9141V18.6719H4.96094C3.55469 18.6719 2.46094 17.5781 2.46094 16.2109V5C2.46094 3.63281 3.55469 2.5 4.96094 2.5H19.9609ZM21.25 16.25V5C21.25 4.33594 20.6641 3.75 20 3.75H5C4.29688 3.75 3.75 4.33594 3.75 5V16.25C3.75 16.9531 4.29688 17.5 5 17.5H9.375C9.6875 17.5 10 17.8125 10 18.125V20.4688L13.5938 17.7734C13.8281 17.6172 14.0625 17.5 14.3359 17.5H20C20.6641 17.5 21.25 16.9531 21.25 16.25ZM13.125 11.875C13.4375 11.875 13.7109 12.1875 13.7109 12.5C13.7109 12.8516 13.4375 13.125 13.125 13.125H8.125C7.77344 13.125 7.46094 12.8516 7.5 12.5C7.5 12.1875 7.77344 11.875 8.125 11.875H13.125ZM16.875 8.125C17.1875 8.125 17.4609 8.4375 17.4609 8.75C17.4609 9.10156 17.1875 9.375 16.875 9.375H8.125C7.77344 9.375 7.46094 9.10156 7.5 8.75C7.5 8.4375 7.77344 8.125 8.125 8.125H16.875Z" fill="#2563EB"/>
</svg>
