<svg xmlns="http://www.w3.org/2000/svg" width="32" height="32" viewBox="0 0 32 32" fill="none">
<rect width="32" height="32" rx="16" fill="white"/>
<path d="M19 21H24L22.5951 19.5951C22.2141 19.2141 22 18.6973 22 18.1585V15C22 12.3876 20.3304 10.1651 18 9.34142V9C18 7.89543 17.1046 7 16 7C14.8954 7 14 7.89543 14 9V9.34142C11.6696 10.1651 10 12.3876 10 15V18.1585C10 18.6973 9.78595 19.2141 9.40493 19.5951L8 21H13M19 21V22C19 23.6569 17.6569 25 16 25C14.3431 25 13 23.6569 13 22V21M19 21H13" stroke="#9CA3AF" stroke-width="2" stroke-linecap="round" stroke-linejoin="round"/>
</svg>