<svg width="21" height="16" viewBox="0 0 21 16" fill="none" xmlns="http://www.w3.org/2000/svg">
<g clip-path="url(#clip0_1420_987)">
<path d="M0.25 5.925C0.25 5.64375 0.309375 5.36875 0.421875 5.1125L1.72187 2.1875C2.04375 1.46562 2.75938 1 3.55 1H10.95C11.7406 1 12.4563 1.46562 12.7781 2.1875L14.0781 5.1125C14.1906 5.36875 14.25 5.64375 14.25 5.925V6.20625C13.9 6.30625 13.5656 6.4375 13.25 6.6V6H7.75H6.75H1.25V13C1.25 13.5531 1.69687 14 2.25 14H10.85C11.0344 14.3562 11.2531 14.6938 11.5094 15H2.25C1.14688 15 0.25 14.1031 0.25 13V5.925ZM1.56562 5H6.75V2H3.55C3.15625 2 2.79688 2.23125 2.6375 2.59375L1.56562 5ZM7.75 2V5H12.9344L11.8656 2.59375C11.7063 2.23125 11.3469 2 10.9531 2H10.95H7.75ZM11.25 11.5C11.25 9.01562 13.2656 7 15.75 7C18.2344 7 20.25 9.01562 20.25 11.5C20.25 13.9844 18.2344 16 15.75 16C13.2656 16 11.25 13.9844 11.25 11.5ZM12.25 11.5C12.25 13.4344 13.8156 15 15.75 15C17.6844 15 19.25 13.4344 19.25 11.5C19.25 9.56563 17.6844 8 15.75 8C13.8156 8 12.25 9.56563 12.25 11.5ZM13.6469 11.1469C13.8406 10.9531 14.1594 10.9531 14.3531 11.1469L15.25 12.0437L17.1469 10.1469C17.3406 9.95312 17.6594 9.95312 17.8531 10.1469C18.0469 10.3406 18.0469 10.6594 17.8531 10.8531L15.6031 13.1031C15.4094 13.2969 15.0906 13.2969 14.8969 13.1031L13.6469 11.8531C13.4531 11.6594 13.4531 11.3406 13.6469 11.1469Z" fill="#2563EB"/>
</g>
<defs>
<clipPath id="clip0_1420_987">
<rect width="20" height="16" fill="white" transform="translate(0.25)"/>
</clipPath>
</defs>
</svg>
