<svg width="20" height="16" viewBox="0 0 20 16" fill="none" xmlns="http://www.w3.org/2000/svg">
<path d="M0.105564 0.189941C0.277443 -0.0256885 0.593074 -0.0631892 0.808704 0.105564L19.8091 15.1059C20.0278 15.2778 20.0622 15.5653 19.8935 15.809C19.7216 16.0278 19.406 16.0621 19.1903 15.8934L0.189941 0.89308C-0.0256885 0.721202 -0.0631892 0.40557 0.105564 0.189941ZM2.36499 7.79322C1.77435 6.7807 1.9181 5.60255 2.68374 5.16504C2.78999 5.10567 2.89937 5.06192 3.015 5.03379L5.4338 6.9432C5.6213 7.73697 5.39942 8.49949 4.81816 8.83387C4.05252 9.27138 2.95562 8.80574 2.36499 7.79322ZM3.00875 6.38694C2.9775 6.62445 3.03062 6.9557 3.2275 7.29321C3.42438 7.63072 3.68689 7.84322 3.91502 7.9401C4.14315 8.03698 4.27127 7.99635 4.32128 7.96823C4.37128 7.9401 4.46503 7.8526 4.49315 7.61509C4.52441 7.37759 4.47128 7.04633 4.2744 6.70882C4.07752 6.37132 3.81502 6.15881 3.58689 6.06194C3.35876 5.96506 3.23063 6.00569 3.18063 6.03381C3.13063 6.06194 3.03687 6.14944 3.00875 6.38694ZM3.99939 13.4902C3.99939 13.1652 4.0494 12.8402 4.1619 12.5371C4.94316 10.4277 6.01506 9.07137 7.06196 8.22761L7.87135 8.86512C6.92133 9.56826 5.87443 10.7964 5.09942 12.8808C5.03379 13.059 4.99941 13.2652 4.99941 13.4871V13.6246C4.99941 13.8308 5.16504 13.9965 5.3713 13.9965C5.6838 13.9965 5.99943 13.9496 6.29944 13.8558L8.80574 13.0715C9.58388 12.8277 10.4152 12.8277 11.1933 13.0715L13.6996 13.8558C13.9121 13.9215 14.134 13.9652 14.3559 13.984L15.3653 14.7809C15.1527 14.9184 14.8996 14.9965 14.6277 14.9965C14.2121 14.9965 13.7965 14.934 13.3996 14.809L10.8964 14.0246C10.312 13.8433 9.68701 13.8433 9.10575 14.0246L6.59945 14.8121C6.20256 14.9371 5.78693 14.9996 5.3713 14.9996C4.61503 14.9996 3.99939 14.384 3.99939 13.6277V13.4902ZM5.5088 1.9056C5.71193 1.50559 6.03069 1.20246 6.44007 1.07121C7.44946 0.743077 8.63074 1.56184 9.07762 2.9025C9.29638 3.55876 9.2995 4.21815 9.1245 4.76191L8.24636 4.06815C8.26198 3.81502 8.23073 3.52438 8.13073 3.21813C7.97135 2.73374 7.68697 2.38061 7.40259 2.18373C7.11821 1.98685 6.8932 1.97748 6.75258 2.02435C6.61507 2.07123 6.44319 2.20561 6.33382 2.52749C6.33069 2.53374 6.32757 2.54311 6.32757 2.55249L5.5088 1.9056ZM10.6714 2.9025C11.1183 1.56184 12.2996 0.743077 13.309 1.07433C14.3184 1.40559 14.7746 2.75874 14.3277 4.0994C13.8808 5.44005 12.6996 6.25882 11.6902 5.92756C10.6808 5.5963 10.2245 4.24315 10.6714 2.9025ZM11.5839 4.4744C11.6933 4.79629 11.8652 4.93066 12.0027 4.97754C12.1433 5.02442 12.3683 5.01504 12.6527 4.81816C12.9371 4.62128 13.2183 4.26815 13.3808 3.78376C13.5433 3.29938 13.5277 2.84937 13.4183 2.52749C13.309 2.20561 13.1371 2.07123 12.9996 2.02435C12.859 1.97748 12.6339 1.98685 12.3496 2.18373C12.0652 2.38061 11.7839 2.73374 11.6214 3.21813C11.4589 3.70251 11.4745 4.15252 11.5839 4.4744ZM14.8621 6.20569C15.4496 5.19317 16.5497 4.72753 17.3153 5.16504C18.0809 5.60255 18.2216 6.7807 17.634 7.79322C17.0465 8.80574 15.9465 9.27138 15.1809 8.83387C14.4152 8.39636 14.2715 7.21821 14.8621 6.20569ZM15.509 7.61509C15.5371 7.8526 15.6309 7.9401 15.6809 7.96823C15.7309 7.99635 15.859 8.03698 16.0871 7.9401C16.3153 7.84322 16.5809 7.63072 16.7747 7.29321C16.9684 6.9557 17.0215 6.62757 16.9934 6.38694C16.9653 6.14944 16.8715 6.06194 16.8215 6.03381C16.7715 6.00569 16.6434 5.96506 16.4153 6.06194C16.1871 6.15881 15.9246 6.37132 15.7278 6.70882C15.534 7.04633 15.4809 7.37446 15.509 7.61509Z" fill="#374151"/>
</svg>
