<svg width="13" height="20" viewBox="0 0 13 20" fill="none" xmlns="http://www.w3.org/2000/svg">
<path d="M1 3.21875C1.46875 2.9375 2.0625 2.9375 2.53125 3.25L11.5312 8.71875C11.9688 9 12.25 9.5 12.25 10C12.25 10.5312 11.9688 11.0312 11.5312 11.2812L2.53125 16.7812C2.0625 17.0625 1.46875 17.0938 1 16.8125C0.53125 16.5625 0.25 16.0625 0.25 15.5V4.5C0.25 3.96875 0.53125 3.46875 1 3.21875ZM2 4.09375C1.84375 4 1.65625 4 1.5 4.09375C1.34375 4.15625 1.25 4.34375 1.25 4.5V15.5C1.25 15.6875 1.34375 15.875 1.5 15.9375C1.65625 16.0312 1.84375 16.0312 2 15.9375L11 10.4375C11.1562 10.3438 11.25 10.1875 11.25 10C11.25 9.84375 11.1562 9.6875 11 9.59375L2 4.09375Z" fill="#1D4ED8"/>
</svg>
