<svg width="25" height="25" viewBox="0 0 25 25" fill="none" xmlns="http://www.w3.org/2000/svg">
<path d="M16.25 8.125C16.5625 8.125 16.875 8.4375 16.875 8.75C16.875 9.10156 16.5625 9.375 16.25 9.375H8.75C8.39844 9.375 8.125 9.10156 8.125 8.75C8.125 8.4375 8.39844 8.125 8.75 8.125H16.25ZM8.125 16.25C8.125 15.9375 8.39844 15.625 8.75 15.625H16.25C16.5625 15.625 16.875 15.9375 16.875 16.25C16.875 16.6016 16.5625 16.875 16.25 16.875H8.75C8.39844 16.875 8.125 16.6016 8.125 16.25ZM16.25 11.875C16.5625 11.875 16.875 12.1875 16.875 12.5C16.875 12.8516 16.5625 13.125 16.25 13.125H8.75C8.39844 13.125 8.125 12.8516 8.125 12.5C8.125 12.1875 8.39844 11.875 8.75 11.875H16.25ZM8.08594 4.49219L9.84375 2.69531C10.0781 2.46094 10.5078 2.46094 10.7422 2.69531L12.5 4.45312L14.2188 2.69531C14.4531 2.46094 14.8828 2.46094 15.1172 2.69531L16.875 4.49219L18.9453 2.65625C19.1406 2.5 19.375 2.46094 19.6094 2.57812C19.8438 2.69531 20 2.89062 20 3.125V21.875C20 22.1484 19.8438 22.3438 19.6094 22.4609C19.375 22.5781 19.1406 22.5391 18.9453 22.3438L16.875 20.5469L15.1172 22.3438C14.8828 22.5781 14.4531 22.5781 14.2188 22.3438L12.5 20.5859L10.7422 22.3438C10.5078 22.5781 10.0781 22.5781 9.84375 22.3438L8.08594 20.5469L6.01562 22.3438C5.82031 22.5391 5.58594 22.5781 5.35156 22.4609C5.11719 22.3438 5 22.1484 5 21.875V3.125C5 2.89062 5.11719 2.69531 5.35156 2.57812C5.58594 2.46094 5.82031 2.5 6.01562 2.65625L8.08594 4.49219ZM7.69531 19.2188C7.92969 19.0234 8.32031 19.0234 8.55469 19.2578L10.3125 21.0156L12.0312 19.2578C12.2656 19.0234 12.6953 19.0234 12.9297 19.2578L14.6875 21.0156L16.4062 19.2578C16.6406 19.0234 17.0312 19.0234 17.2656 19.2188L18.75 20.5078V4.53125L17.2656 5.82031C17.0312 6.01562 16.6406 6.01562 16.4062 5.78125L14.6875 4.02344L12.9297 5.78125C12.6953 6.01562 12.2656 6.01562 12.0312 5.78125L10.3125 4.02344L8.55469 5.78125C8.32031 6.01562 7.92969 6.01562 7.69531 5.82031L6.25 4.53125V20.5078L7.69531 19.2188Z" fill="#2563EB"/>
</svg>
