<svg width="21" height="21" viewBox="0 0 21 21" fill="none" xmlns="http://www.w3.org/2000/svg">
<path d="M6.39844 10.6953C6.55469 10.4609 6.90625 10.4609 7.0625 10.6953C7.14062 10.7734 7.17969 10.8516 7.25781 10.9297C8 11.8281 9.25 13.3125 9.25 14.4844C9.25 15.7344 8.11719 16.75 6.75 16.75C5.34375 16.75 4.25 15.7344 4.25 14.4844C4.25 13.3516 5.42188 11.8672 6.16406 10.9688C6.24219 10.8516 6.32031 10.7734 6.39844 10.6953ZM6.08594 13.1172C5.65625 13.7812 5.5 14.25 5.5 14.4844C5.5 14.9531 5.92969 15.5 6.75 15.5C7.53125 15.5 8 14.9531 8 14.4844C8 14.25 7.80469 13.7812 7.375 13.1172C7.17969 12.8047 6.94531 12.5312 6.75 12.2578C6.51562 12.5312 6.32031 12.8047 6.08594 13.1172ZM14.9922 15.1094C15.2266 15.3438 15.2266 15.7344 14.9531 15.9688C14.7188 16.2031 14.3281 16.2031 14.0938 15.9297C13.1172 14.875 11.8281 14.25 10.4609 14.25C10.1484 14.25 9.83594 13.9766 9.83594 13.625C9.83594 13.3125 10.1484 13 10.4609 13C12.2578 13 13.8203 13.8203 14.9922 15.1094ZM13.5859 7.6875C14.0938 7.6875 14.5234 8.11719 14.5234 8.625C14.5234 9.17188 14.0938 9.5625 13.5859 9.5625C13.0781 9.5625 12.6484 9.17188 12.6484 8.625C12.6484 8.11719 13.0781 7.6875 13.5859 7.6875ZM7.33594 9.5625C6.82812 9.5625 6.39844 9.17188 6.39844 8.625C6.39844 8.11719 6.82812 7.6875 7.33594 7.6875C7.84375 7.6875 8.27344 8.11719 8.27344 8.625C8.27344 9.17188 7.84375 9.5625 7.33594 9.5625ZM10.5 20.5C4.95312 20.5 0.5 16.0469 0.5 10.5C0.5 4.99219 4.95312 0.5 10.5 0.5C16.0078 0.5 20.5 4.99219 20.5 10.5C20.5 16.0469 16.0078 20.5 10.5 20.5ZM19.25 10.5C19.25 5.69531 15.3047 1.75 10.5 1.75C5.65625 1.75 1.75 5.69531 1.75 10.5C1.75 15.3438 5.65625 19.25 10.5 19.25C15.3047 19.25 19.25 15.3438 19.25 10.5Z" fill="#2563EB"/>
</svg>
