<svg width="25" height="25" viewBox="0 0 25 25" fill="none" xmlns="http://www.w3.org/2000/svg">
<path d="M5.9375 10C6.79688 10 7.5 10.7031 7.5 11.5625V19.6875C7.5 20.5859 6.79688 21.25 5.9375 21.25H4.0625C3.16406 21.25 2.5 20.5859 2.5 19.6875V11.5625C2.5 10.7031 3.16406 10 4.0625 10H5.9375ZM6.25 19.6875V11.5625C6.25 11.4062 6.09375 11.25 5.9375 11.25H4.0625C3.86719 11.25 3.75 11.4062 3.75 11.5625V19.6875C3.75 19.8828 3.86719 20 4.0625 20H5.9375C6.09375 20 6.25 19.8828 6.25 19.6875ZM22.5 11.1719C22.5 12.1094 21.9531 12.9297 21.1328 13.3203C21.25 13.5547 21.2891 13.8672 21.2891 14.1406C21.2891 15.0391 20.7812 15.8203 20.0391 16.25C20.0781 16.4062 20.1172 16.6016 20.1172 16.7969C20.1172 17.6562 19.6484 18.4375 18.9453 18.8672C18.9453 20.1953 17.8516 21.25 16.5234 21.25H14.3359C11.25 21.25 8.71094 18.7891 8.75 18.125C8.75 17.8125 9.02344 17.5 9.375 17.5C10.1172 17.5 11.1328 20 14.3359 20H16.5234C17.1484 20 17.6953 19.4922 17.6953 18.8672C17.6953 18.6719 17.6172 18.6328 17.6172 18.4766C17.6172 17.6562 18.8672 18.0078 18.8672 16.7969C18.8672 16.2891 18.5938 16.2109 18.5938 15.8594C18.5938 15.5078 18.8672 15.3125 19.1016 15.2734C19.6484 15.1562 20.0391 14.6875 20.0391 14.1406C20.0391 13.4375 19.5703 13.3984 19.5703 12.9297C19.5703 12.6172 19.8438 12.3438 20.1562 12.3047C20.7422 12.2656 21.25 11.7578 21.25 11.1719C21.25 10.5469 20.7031 10 20.0781 10H15.0781C14.7656 10 14.4531 9.76562 14.4531 9.375C14.4531 9.29688 14.4531 9.17969 14.5312 9.10156C15.1953 7.85156 15.5469 6.52344 15.5469 6.13281C15.5469 5.66406 15.1953 5 14.375 5C13.75 5 13.6328 5.19531 13.2812 6.28906C12.4219 8.90625 11.8359 9.02344 9.80469 11.0938C9.6875 11.2109 9.53125 11.25 9.375 11.25C9.02344 11.25 8.75 11.0156 8.75 10.625C8.75 9.72656 11.0156 9.21875 12.0703 5.89844C12.4219 4.92188 12.7734 3.75 14.375 3.75C15.8984 3.75 16.7969 4.96094 16.7969 6.13281C16.7969 6.67969 16.5234 7.69531 16.0938 8.75H20.0781C21.4062 8.75 22.5 9.84375 22.5 11.1719Z" fill="#2563EB"/>
</svg>
