<svg width="20" height="16" viewBox="0 0 20 16" fill="none" xmlns="http://www.w3.org/2000/svg">
<path d="M3 2V3H7.5C7.75 3 8 3.25 8 3.5C8 3.78125 7.75 4 7.5 4H0.5C0.21875 4 0 3.78125 0 3.5C0 3.25 0.21875 3 0.5 3H2V2C2 0.90625 2.875 0 4 0H11C12.0938 0 13 0.90625 13 2V3H15.0312C15.4688 3 15.875 3.21875 16.1562 3.53125L18.625 6.40625C18.8438 6.6875 19 7.03125 19 7.375V12H19.5C19.75 12 20 12.25 20 12.5C20 12.7812 19.75 13 19.5 13H18C18 14.6562 16.6562 16 15 16C13.3125 16 12 14.6562 12 13H7.96875C7.96875 14.6562 6.65625 16 4.96875 16C3.3125 16 1.96875 14.6562 1.96875 13V9H2.96875V10.7812C3.5 10.3125 4.21875 10 4.96875 10C6.28125 10 7.40625 10.8438 7.8125 12H12V2C12 1.46875 11.5312 1 11 1H3.96875C3.4375 1 2.96875 1.46875 2.96875 2H3ZM15.4062 4.1875C15.3125 4.0625 15.1562 4 15.0312 4H13V7H17.8125L15.4062 4.1875ZM13 8V10.7812C13.5 10.3125 14.2188 10 15 10C16.2812 10 17.4062 10.8438 17.8125 12H18V8H13ZM5 11C3.875 11 3 11.9062 3 13C3 14.125 3.875 15 5 15C6.09375 15 7 14.125 7 13C7 11.9062 6.09375 11 5 11ZM15 15C16.0938 15 17 14.125 17 13C17 11.9062 16.0938 11 15 11C13.875 11 13 11.9062 13 13C13 14.125 13.875 15 15 15ZM8.5 5C8.75 5 9 5.25 9 5.5C9 5.78125 8.75 6 8.5 6H1.5C1.21875 6 1 5.78125 1 5.5C1 5.25 1.21875 5 1.5 5H8.5ZM7.5 7C7.75 7 8 7.25 8 7.5C8 7.78125 7.75 8 7.5 8H0.5C0.21875 8 0 7.78125 0 7.5C0 7.25 0.21875 7 0.5 7H7.5Z" fill="#374151"/>
</svg>
