<svg width="20" height="16" viewBox="0 0 20 16" fill="none" xmlns="http://www.w3.org/2000/svg">
<path d="M11.5 1C11.2188 1 11 0.78125 11 0.5C11 0.25 11.2188 0 11.5 0C12.875 0 14 1.125 14 2.5C14 2.78125 13.75 3 13.5 3C13.2188 3 13 2.78125 13 2.5C13 1.6875 12.3125 1 11.5 1ZM15.0312 3.34375C16.125 3.34375 17 4.21875 16.9688 5.28125V8.90625C16.9688 10.4062 16.375 11.8438 15.3125 12.9062L14.6875 13.5312C13.7188 14.4688 12.4375 15 11.0625 15C9.6875 15 8.40625 14.4688 7.40625 13.5L3.5 9.625C3.125 9.25 2.96875 8.78125 2.96875 8.3125C2.96875 7.3125 3.78125 6.875 3.90625 6.78125C3.65625 6.4375 3.53125 6.03125 3.53125 5.65625C3.53125 4.78125 4.09375 4.21875 4.65625 4.03125C4.59375 3.875 4.59375 3.6875 4.59375 3.53125C4.59375 2.5 5.4375 1.8125 6.3125 1.8125C6.5 1.8125 6.65625 1.8125 6.8125 1.875C7.1875 0.8125 8.25 0.75 8.4375 0.75C8.90625 0.75 9.34375 0.9375 9.6875 1.28125L13.1875 4.78125C13.25 4.5 13.7188 3.34375 15.0312 3.34375ZM15.9688 8.875V5.28125C15.9688 4.78125 15.5625 4.34375 15.0312 4.34375C14.25 4.34375 14.0938 5.15625 14.0938 5.34375V6.5625C14.0938 6.6875 14 6.78125 13.875 6.78125C13.8125 6.78125 13.75 6.75 13.7188 6.71875L8.9375 1.96875C8.8125 1.84375 8.59375 1.75 8.40625 1.75C8.09375 1.75 7.6875 2 7.6875 2.5C7.6875 2.71875 7.78125 2.9375 7.9375 3.09375L11.3125 6.4375C11.375 6.53125 11.4062 6.625 11.4062 6.71875C11.4062 6.90625 11.25 7.0625 11.0312 7.0625C10.9375 7.0625 10.8438 7.03125 10.7812 6.96875L6.8125 3.03125C6.6875 2.90625 6.46875 2.8125 6.28125 2.8125C6 2.8125 5.5625 3.0625 5.5625 3.5625C5.5625 3.75 5.65625 3.96875 5.8125 4.15625L9.71875 8.0625C9.8125 8.15625 9.84375 8.25 9.84375 8.34375C9.84375 8.53125 9.65625 8.6875 9.46875 8.6875C9.375 8.6875 9.28125 8.65625 9.1875 8.5625L5.78125 5.15625C5.625 5.03125 5.4375 4.9375 5.25 4.9375C4.9375 4.9375 4.5 5.1875 4.5 5.65625C4.5 5.875 4.59375 6.09375 4.75 6.25L8.125 9.625C8.21875 9.6875 8.25 9.8125 8.25 9.90625C8.25 10.0938 8.0625 10.2812 7.875 10.2812C7.78125 10.2812 7.6875 10.2188 7.59375 10.1562L5.25 7.8125C5.09375 7.65625 4.90625 7.59375 4.71875 7.59375C4.40625 7.59375 3.96875 7.8125 3.96875 8.3125C3.96875 8.53125 4.0625 8.75 4.21875 8.90625L8.125 12.7812C8.90625 13.5938 9.96875 14 11.0312 14C12.0938 14 13.1562 13.5938 13.9688 12.7812L14.5938 12.1875C15.4688 11.3125 15.9688 10.125 15.9688 8.875ZM4.5 13C4.75 13 5 13.25 5 13.5C5 13.7812 4.75 14 4.5 14C3.09375 14 2 12.9062 2 11.5C2 11.25 2.21875 11 2.5 11C2.75 11 3 11.25 3 11.5C3 12.3438 3.65625 13 4.5 13Z" fill="#DC2626"/>
</svg>
